<svg id="Layer_1" data-name="Layer 1" xmlns="http://www.w3.org/2000/svg" viewBox="0 0 100 100"><title>Artboard 1</title><path d="M8.5,39.5c21.44-30.9,63.85-25.3,76.8,0" fill="none" stroke="#6ca7a7" stroke-linecap="round" stroke-linejoin="round" stroke-width="4.43"/><path d="M61.34,19.4c7.25-2.76,12.48-8,16.45-14.81C76,11.8,73.29,18.4,67.13,22.47Z" fill="#6ca7a7" fill-rule="evenodd"/><path d="M69.77,24.38c7.25-2.77,12.48-8,16.45-14.82-1.83,7.22-4.5,13.82-10.66,17.89Z" fill="#6ca7a7" fill-rule="evenodd"/><path d="M76.79,29.58C84.34,27.77,90.19,23.23,95,17c-2.74,6.92-6.23,13.13-12.87,16.38Z" fill="#6ca7a7" fill-rule="evenodd"/><path d="M47.32,18.89h0a17.88,17.88,0,0,1,17.9,17.89h0a17.89,17.89,0,0,1-17.9,17.9h0A17.88,17.88,0,0,1,29.42,36.8h0a17.89,17.89,0,0,1,17.9-17.9h0ZM33.68,44.68h4a27.58,27.58,0,0,1-1-6.2h-5a15.71,15.71,0,0,0,2,6.2Zm6.17,0h6.39v-6.2H38.72a25.07,25.07,0,0,0,1.13,6.2Zm8.54,0h6.39a25.07,25.07,0,0,0,1.13-6.2H48.39v6.2Zm8.6,0h4a15.63,15.63,0,0,0,2-6.2H58a27.88,27.88,0,0,1-1,6.2Zm2.46,2.15h-3.2a19.84,19.84,0,0,1-1.15,2.4,16.57,16.57,0,0,1-1.32,1.94,15.91,15.91,0,0,0,4.69-3.24c.35-.35.68-.72,1-1.1Zm-5.51,0H48.39v5.59c1.86-.44,3.56-2,4.87-4.27.24-.42.47-.86.68-1.32Zm-7.7,0H40.69c.22.46.44.9.68,1.32,1.32,2.28,3,3.83,4.87,4.27V46.83Zm-7.86,0h-3.2c.31.38.65.75,1,1.1a16,16,0,0,0,4.69,3.24,14.58,14.58,0,0,1-1.32-1.94,18.71,18.71,0,0,1-1.16-2.39Zm-6.82-10.5h5a28.4,28.4,0,0,1,.81-6.44H33.16a15.74,15.74,0,0,0-1.59,6.44Zm7.1,0h7.57V29.88H39.56a26.32,26.32,0,0,0-.89,6.44Zm9.72,0H56a26.07,26.07,0,0,0-.89-6.44H48.39v6.44Zm9.68,0h5a15.65,15.65,0,0,0-1.59-6.44H57.26a28.68,28.68,0,0,1,.82,6.44ZM34.43,27.73H38a19.54,19.54,0,0,1,1.53-3.38,14.67,14.67,0,0,1,1.32-1.94,15.94,15.94,0,0,0-6.43,5.32Zm5.84,0h6V21.16c-1.86.43-3.55,2-4.87,4.27a17.69,17.69,0,0,0-1.1,2.3Zm8.12,0h6a17,17,0,0,0-1.1-2.3c-1.31-2.28-3-3.84-4.87-4.27v6.57Zm8.23,0H60.2a15.82,15.82,0,0,0-6.43-5.32,15.6,15.6,0,0,1,1.32,1.94A20.35,20.35,0,0,1,56.62,27.73Z" fill="#6ca7a7"/><path d="M19.27,62.07a3.44,3.44,0,0,0-.35-1.44,3,3,0,0,0-.85-1A3.73,3.73,0,0,0,16.77,59a6.06,6.06,0,0,0-1.63-.21A5.86,5.86,0,0,0,14,58.9a3.67,3.67,0,0,0-1.15.44,2.61,2.61,0,0,0-.87.85,2.39,2.39,0,0,0-.34,1.32A2,2,0,0,0,12,62.77a2.75,2.75,0,0,0,1,.78,6.51,6.51,0,0,0,1.4.48l1.6.34q.83.16,1.61.39a5.55,5.55,0,0,1,1.4.61,3,3,0,0,1,1,1,3,3,0,0,1,.38,1.56,3.11,3.11,0,0,1-.43,1.69,3.66,3.66,0,0,1-1.09,1.12,4.52,4.52,0,0,1-1.46.62,6.7,6.7,0,0,1-1.54.19,8.93,8.93,0,0,1-2.12-.24A4.77,4.77,0,0,1,12,70.52a3.83,3.83,0,0,1-1.16-1.41,4.6,4.6,0,0,1-.4-2.11h.79a3.59,3.59,0,0,0,.31,1.79,3.24,3.24,0,0,0,1,1.2,4.15,4.15,0,0,0,1.5.67,7.8,7.8,0,0,0,1.82.21,5.73,5.73,0,0,0,1.23-.14,3.81,3.81,0,0,0,1.21-.49,3,3,0,0,0,.92-.9,2.5,2.5,0,0,0,.37-1.4,2.17,2.17,0,0,0-.38-1.32,2.78,2.78,0,0,0-1-.83,6.44,6.44,0,0,0-1.4-.5q-.78-.19-1.61-.35t-1.6-.38a5.49,5.49,0,0,1-1.4-.58,3,3,0,0,1-1-1,2.72,2.72,0,0,1-.38-1.5,3.06,3.06,0,0,1,.39-1.58,3.17,3.17,0,0,1,1-1.06,4.48,4.48,0,0,1,1.4-.59,6.43,6.43,0,0,1,1.53-.19,7.5,7.5,0,0,1,1.88.23,4.48,4.48,0,0,1,1.53.7,3.51,3.51,0,0,1,1.05,1.23,4.36,4.36,0,0,1,.45,1.82Z" fill="#7e7f7f"/><path d="M28.23,69.41h0a2.86,2.86,0,0,1-.47.78,3.3,3.3,0,0,1-.75.66,3.69,3.69,0,0,1-1,.45,4.37,4.37,0,0,1-1.22.16,3.61,3.61,0,0,1-2.29-.64,2.36,2.36,0,0,1-.81-2,2.31,2.31,0,0,1,1.14-2.13,3.53,3.53,0,0,1,1.1-.42,10.77,10.77,0,0,1,1.16-.18L26.12,66a6.28,6.28,0,0,0,1.16-.17,1.49,1.49,0,0,0,.64-.32.92.92,0,0,0,.27-.53,5,5,0,0,0,.05-.81,1.71,1.71,0,0,0-.14-.7,1.58,1.58,0,0,0-.45-.58,2.24,2.24,0,0,0-.79-.4,4.24,4.24,0,0,0-1.19-.14,3.12,3.12,0,0,0-2,.61,2.42,2.42,0,0,0-.84,1.85h-.68a3,3,0,0,1,1-2.29,3.9,3.9,0,0,1,2.58-.76,3.7,3.7,0,0,1,2.44.66,2.16,2.16,0,0,1,.77,1.72v5.38q0,.2,0,.4a1.33,1.33,0,0,0,.06.36.54.54,0,0,0,.18.26.57.57,0,0,0,.36.1,3.28,3.28,0,0,0,.5-.05v.58a2.12,2.12,0,0,1-.56.07,1.64,1.64,0,0,1-.66-.11.86.86,0,0,1-.37-.29,1.06,1.06,0,0,1-.17-.42,2.94,2.94,0,0,1,0-.53Zm0-3.42a1.3,1.3,0,0,1-.77.41,9.49,9.49,0,0,1-1.14.16l-1.15.11c-.34,0-.67.09-1,.15a2.93,2.93,0,0,0-.91.33,1.86,1.86,0,0,0-.66.64,2,2,0,0,0-.25,1.05A1.79,1.79,0,0,0,23,70.38a2.87,2.87,0,0,0,1.78.5,3.5,3.5,0,0,0,1.85-.42,3.28,3.28,0,0,0,1-1,3,3,0,0,0,.46-1.06,4.54,4.54,0,0,0,.1-.69Z" fill="#7e7f7f"/><path d="M31.11,62h.68v1.89h0a2.46,2.46,0,0,1,.38-.82,2.94,2.94,0,0,1,.66-.68,3.12,3.12,0,0,1,.86-.45,3.07,3.07,0,0,1,1-.16,3.47,3.47,0,0,1,1.15.17,2.72,2.72,0,0,1,.83.45,2.22,2.22,0,0,1,.54.63,2.41,2.41,0,0,1,.27.71h0a3.36,3.36,0,0,1,1.11-1.47,3.07,3.07,0,0,1,1.83-.5,3.44,3.44,0,0,1,1.16.19,2.44,2.44,0,0,1,.92.58,2.64,2.64,0,0,1,.6,1,4.1,4.1,0,0,1,.22,1.4v6.32H42.7V64.91a3,3,0,0,0-.27-1.39,2.18,2.18,0,0,0-.64-.77,1.81,1.81,0,0,0-.74-.32,3.65,3.65,0,0,0-.57-.06,3.06,3.06,0,0,0-1.16.22,2.47,2.47,0,0,0-.92.65,3,3,0,0,0-.6,1.07,4.58,4.58,0,0,0-.22,1.47v5.47H36.9V64.91a3.06,3.06,0,0,0-.26-1.38,2.08,2.08,0,0,0-.61-.76,1.84,1.84,0,0,0-.72-.32,3.26,3.26,0,0,0-.58-.07,2.89,2.89,0,0,0-2,.81,3.11,3.11,0,0,0-.7,1.06,4,4,0,0,0-.27,1.53v5.47h-.68Z" fill="#7e7f7f"/><path d="M51.56,69.41h0a2.88,2.88,0,0,1-.47.78,3.3,3.3,0,0,1-.75.66,3.69,3.69,0,0,1-1,.45,4.37,4.37,0,0,1-1.22.16,3.61,3.61,0,0,1-2.29-.64,2.36,2.36,0,0,1-.81-2,2.31,2.31,0,0,1,1.14-2.13,3.53,3.53,0,0,1,1.1-.42,10.77,10.77,0,0,1,1.16-.18L49.45,66a6.28,6.28,0,0,0,1.16-.17,1.48,1.48,0,0,0,.64-.32.92.92,0,0,0,.27-.53,5,5,0,0,0,.05-.81,1.71,1.71,0,0,0-.14-.7,1.58,1.58,0,0,0-.45-.58,2.24,2.24,0,0,0-.79-.4A4.24,4.24,0,0,0,49,62.38,3.12,3.12,0,0,0,47,63a2.42,2.42,0,0,0-.84,1.85h-.68a3,3,0,0,1,1-2.29A3.9,3.9,0,0,1,49,61.78a3.7,3.7,0,0,1,2.44.66,2.16,2.16,0,0,1,.76,1.72v5.38c0,.13,0,.26,0,.4a1.35,1.35,0,0,0,.06.36.54.54,0,0,0,.18.26.57.57,0,0,0,.36.1,3.28,3.28,0,0,0,.5-.05v.58a2.12,2.12,0,0,1-.56.07,1.64,1.64,0,0,1-.66-.11.86.86,0,0,1-.37-.29,1,1,0,0,1-.17-.42,3,3,0,0,1,0-.53Zm0-3.42a1.3,1.3,0,0,1-.77.41,9.49,9.49,0,0,1-1.14.16l-1.15.11c-.34,0-.67.09-1,.15a2.93,2.93,0,0,0-.91.33,1.86,1.86,0,0,0-.66.64,2,2,0,0,0-.25,1.05,1.79,1.79,0,0,0,.65,1.52,2.87,2.87,0,0,0,1.78.5A3.5,3.5,0,0,0,50,70.45a3.28,3.28,0,0,0,1-1,3,3,0,0,0,.46-1.06,4.5,4.5,0,0,0,.1-.69Z" fill="#7e7f7f"/><path d="M54.42,62h.68v2h0a3,3,0,0,1,.51-.93,3.36,3.36,0,0,1,.77-.69,3.42,3.42,0,0,1,1-.43,4,4,0,0,1,1.06-.14,4.19,4.19,0,0,1,1.38.2,2.71,2.71,0,0,1,.93.52,2.54,2.54,0,0,1,.57.73,3.44,3.44,0,0,1,.3.82,4.85,4.85,0,0,1,.11.8c0,.26,0,.48,0,.68v5.72h-.68V65.4a8.63,8.63,0,0,0-.05-.86,2.64,2.64,0,0,0-.32-1,2.28,2.28,0,0,0-.79-.82,2.7,2.7,0,0,0-1.47-.34,3.26,3.26,0,0,0-1.4.29,3.05,3.05,0,0,0-1,.8,3.53,3.53,0,0,0-.66,1.22,5.12,5.12,0,0,0-.23,1.56v5h-.68Z" fill="#7e7f7f"/><path d="M67.16,62.59h-2v6.46a2.49,2.49,0,0,0,.13.88,1,1,0,0,0,.39.5,1.36,1.36,0,0,0,.63.21,6.41,6.41,0,0,0,.85,0v.59a6.52,6.52,0,0,1-1,0,2,2,0,0,1-.87-.27,1.58,1.58,0,0,1-.6-.67,2.55,2.55,0,0,1-.19-1.24V62.59H62.75V62h1.71V59.12h.68V62h2Z" fill="#7e7f7f"/><path d="M69.11,58.4V64h0a3,3,0,0,1,.51-.93,3.36,3.36,0,0,1,.77-.69,3.42,3.42,0,0,1,1-.43,4,4,0,0,1,1.06-.14,4.19,4.19,0,0,1,1.38.2,2.71,2.71,0,0,1,.93.52,2.54,2.54,0,0,1,.57.73,3.44,3.44,0,0,1,.3.82,4.85,4.85,0,0,1,.11.8c0,.26,0,.48,0,.68v5.72h-.68V65.4a8.63,8.63,0,0,0-.05-.86,2.64,2.64,0,0,0-.32-1,2.28,2.28,0,0,0-.79-.82,2.7,2.7,0,0,0-1.47-.34,3.26,3.26,0,0,0-1.4.29,3.05,3.05,0,0,0-1,.8,3.53,3.53,0,0,0-.66,1.22,5.12,5.12,0,0,0-.23,1.56v5h-.68V58.4Z" fill="#7e7f7f"/><path d="M83.9,69.41h0a2.91,2.91,0,0,1-.47.78,3.31,3.31,0,0,1-.75.66,3.67,3.67,0,0,1-1,.45,4.37,4.37,0,0,1-1.22.16,3.61,3.61,0,0,1-2.29-.64,2.36,2.36,0,0,1-.81-2,2.31,2.31,0,0,1,1.14-2.13,3.53,3.53,0,0,1,1.1-.42,10.75,10.75,0,0,1,1.16-.18L81.8,66A6.25,6.25,0,0,0,83,65.86a1.48,1.48,0,0,0,.64-.32.93.93,0,0,0,.27-.53,5.17,5.17,0,0,0,.05-.81,1.68,1.68,0,0,0-.14-.7,1.58,1.58,0,0,0-.45-.58,2.24,2.24,0,0,0-.79-.4,4.25,4.25,0,0,0-1.19-.14,3.11,3.11,0,0,0-2,.61,2.42,2.42,0,0,0-.84,1.85h-.68a3,3,0,0,1,1-2.29,3.91,3.91,0,0,1,2.58-.76,3.71,3.71,0,0,1,2.44.66,2.16,2.16,0,0,1,.76,1.72v5.38c0,.13,0,.26,0,.4a1.35,1.35,0,0,0,.06.36.54.54,0,0,0,.18.26.57.57,0,0,0,.36.1,3.3,3.3,0,0,0,.5-.05v.58a2.14,2.14,0,0,1-.56.07,1.63,1.63,0,0,1-.66-.11.86.86,0,0,1-.37-.29,1.05,1.05,0,0,1-.17-.42,3,3,0,0,1,0-.53Zm0-3.42a1.3,1.3,0,0,1-.77.41,9.48,9.48,0,0,1-1.14.16l-1.15.11c-.34,0-.67.09-1,.15a2.93,2.93,0,0,0-.91.33,1.85,1.85,0,0,0-.66.64A2,2,0,0,0,78,68.86a1.79,1.79,0,0,0,.65,1.52,2.87,2.87,0,0,0,1.78.5,3.51,3.51,0,0,0,1.85-.42,3.29,3.29,0,0,0,1-1,3,3,0,0,0,.46-1.06,4.5,4.5,0,0,0,.1-.69Z" fill="#7e7f7f"/><path d="M24.8,72.4h5.15a5.58,5.58,0,0,1,1.93.29,3.41,3.41,0,0,1,1.24.76,2.78,2.78,0,0,1,.67,1.07A3.73,3.73,0,0,1,34,75.73a2.73,2.73,0,0,1-.18,1,2.57,2.57,0,0,1-.51.83,3,3,0,0,1-.79.6,3,3,0,0,1-1,.31l0,0a2.09,2.09,0,0,1,.59.11,3.25,3.25,0,0,1,1,.48,3.41,3.41,0,0,1,.92,1,2.87,2.87,0,0,1,.41,1.59,3.5,3.5,0,0,1-.32,1.55,3.18,3.18,0,0,1-.91,1.13,4,4,0,0,1-1.41.69,6.73,6.73,0,0,1-1.84.23H24.8Zm5.15,5.83a3.56,3.56,0,0,0,2.45-.73,2.46,2.46,0,0,0,.81-1.92,2.36,2.36,0,0,0-.27-1.18,2.23,2.23,0,0,0-.72-.77,3,3,0,0,0-1-.42,5.85,5.85,0,0,0-1.23-.13H25.59v5.15Zm0,6.34a4.46,4.46,0,0,0,2.71-.73,2.55,2.55,0,0,0,1-2.19,2.47,2.47,0,0,0-.34-1.36,2.54,2.54,0,0,0-.87-.84A3.64,3.64,0,0,0,31.23,79a7.32,7.32,0,0,0-1.29-.12H25.59v5.65Z" fill="#7e7f7f"/><path d="M36.7,78h.05a2.24,2.24,0,0,1,.46-.85,3.23,3.23,0,0,1,.81-.68,4,4,0,0,1,1.06-.44,4.32,4.32,0,0,1,1.21-.13v.68a3.24,3.24,0,0,0-1.23.11,3,3,0,0,0-1.32.79,6.34,6.34,0,0,0-.44.52,2.53,2.53,0,0,0-.31.56,3.49,3.49,0,0,0-.2.68,5.9,5.9,0,0,0-.09.9v5.06H36V76h.68Z" fill="#7e7f7f"/><path d="M40.37,80.62a6.08,6.08,0,0,1,.28-1.86,4.68,4.68,0,0,1,.82-1.54,3.9,3.9,0,0,1,1.33-1.05,4.47,4.47,0,0,1,3.64,0,3.9,3.9,0,0,1,1.33,1.05,4.68,4.68,0,0,1,.82,1.54,6.08,6.08,0,0,1,.28,1.86,6.17,6.17,0,0,1-.28,1.87A4.57,4.57,0,0,1,47.77,84a3.93,3.93,0,0,1-1.33,1,4.47,4.47,0,0,1-3.64,0,3.93,3.93,0,0,1-1.33-1,4.57,4.57,0,0,1-.82-1.54A6.17,6.17,0,0,1,40.37,80.62Zm.68,0a5.41,5.41,0,0,0,.23,1.59A4.31,4.31,0,0,0,42,83.58a3.34,3.34,0,0,0,1.12.95,3.51,3.51,0,0,0,3.06,0,3.35,3.35,0,0,0,1.12-.95,4.32,4.32,0,0,0,.68-1.36,5.53,5.53,0,0,0,0-3.19,4.33,4.33,0,0,0-.68-1.36,3.35,3.35,0,0,0-1.12-.95,3.51,3.51,0,0,0-3.06,0,3.34,3.34,0,0,0-1.12.95A4.32,4.32,0,0,0,41.29,79,5.41,5.41,0,0,0,41.05,80.62Z" fill="#7e7f7f"/><path d="M57.61,83.27h0a4.21,4.21,0,0,1-1.44,1.65,4.31,4.31,0,0,1-3.91.15A3.56,3.56,0,0,1,51,84a4.6,4.6,0,0,1-.72-1.54,7.34,7.34,0,0,1,0-3.74,4.37,4.37,0,0,1,.76-1.54,3.67,3.67,0,0,1,1.29-1,4.1,4.1,0,0,1,1.82-.38,4,4,0,0,1,1.1.15,3.88,3.88,0,0,1,1,.44,3.16,3.16,0,0,1,1.32,1.69h0V72.4h.68V85.25h-.68Zm-3.44,1.6a3,3,0,0,0,1.52-.36,3.23,3.23,0,0,0,1.06-1,4.2,4.2,0,0,0,.63-1.36,6,6,0,0,0,0-3.13,4.43,4.43,0,0,0-.62-1.37,3.06,3.06,0,0,0-1.07-1,3.15,3.15,0,0,0-1.54-.36,3.25,3.25,0,0,0-1.57.35,3.13,3.13,0,0,0-1.07.95A3.93,3.93,0,0,0,50.91,79a6.73,6.73,0,0,0-.19,1.6,6,6,0,0,0,.21,1.58,4.23,4.23,0,0,0,.63,1.36,3.13,3.13,0,0,0,1.07.95A3.22,3.22,0,0,0,54.18,84.87Z" fill="#7e7f7f"/><path d="M60.64,74.25V72.4h.68v1.85Zm0,11V76h.68v9.25Z" fill="#7e7f7f"/><path d="M63.75,80.71v.11A5.46,5.46,0,0,0,64,82.37a3.94,3.94,0,0,0,.64,1.3,3,3,0,0,0,1.06.88,3.26,3.26,0,0,0,1.49.32,3.18,3.18,0,0,0,2.2-.73,3.82,3.82,0,0,0,1.12-2h.68a4.14,4.14,0,0,1-1.32,2.48,4,4,0,0,1-2.69.86,4.08,4.08,0,0,1-1.79-.37,3.64,3.64,0,0,1-1.28-1,4.28,4.28,0,0,1-.76-1.51,6.72,6.72,0,0,1-.25-1.88,6.6,6.6,0,0,1,.26-1.86,4.69,4.69,0,0,1,.78-1.57,3.89,3.89,0,0,1,1.3-1.08,4,4,0,0,1,1.85-.4,3.92,3.92,0,0,1,1.72.36,3.62,3.62,0,0,1,1.25,1A4.38,4.38,0,0,1,71,78.56a5.75,5.75,0,0,1,.26,1.75c0,.06,0,.13,0,.21s0,.14,0,.19Zm6.8-.59a5.53,5.53,0,0,0-.25-1.43,3.53,3.53,0,0,0-.64-1.19,3.19,3.19,0,0,0-1-.82,3,3,0,0,0-1.38-.31,3.23,3.23,0,0,0-1.46.32,3.29,3.29,0,0,0-1.06.83,3.69,3.69,0,0,0-.67,1.2,5.62,5.62,0,0,0-.29,1.4Z" fill="#7e7f7f"/></svg>